<mxfile host="app.diagrams.net" modified="2023-10-02T09:38:28.797Z" agent="Mozilla/5.0 (Windows NT 10.0; Win64; x64; rv:109.0) Gecko/20100101 Firefox/118.0" version="22.0.0" etag="PeNbkO5z2RUbEtkuyPjR" type="github">
  <diagram name="Page-1" id="5xcIQ1hF4PuccZflKzSc">
    <mxGraphModel>
      <root>
        <mxCell id="0" />
        <mxCell id="1" parent="0" />
      </root>
    </mxGraphModel>
  </diagram>
</mxfile>
